<svg width="100%" viewBox="0 0 680 780" xmlns="http://www.w3.org/2000/svg">
<defs>
  <marker id="arrow" viewBox="0 0 10 10" refX="8" refY="5" markerWidth="6" markerHeight="6" orient="auto-start-reverse">
    <path d="M2 1L8 5L2 9" fill="none" stroke="context-stroke" stroke-width="1.5" stroke-linecap="round" stroke-linejoin="round"/>
  </marker>
</defs>

<rect x="0" y="0" width="680" height="780" fill="#000000"/>

<rect x="115" y="30" width="450" height="700" rx="8" fill="#111111" stroke="#444444" stroke-width="1.5"/>
<text class="th" x="340" y="54" text-anchor="middle" dominant-baseline="central" fill="#ffffff">Pillarboxd</text>

<line x1="55" y1="277" x2="245" y2="120" stroke="#555555" stroke-width="0.8"/>
<line x1="55" y1="277" x2="245" y2="240" stroke="#555555" stroke-width="0.8"/>
<line x1="55" y1="277" x2="245" y2="360" stroke="#555555" stroke-width="0.8"/>
<line x1="55" y1="300" x2="350" y2="650" stroke="#555555" stroke-width="0.8"/>

<line x1="625" y1="352" x2="455" y2="185" stroke="#555555" stroke-width="0.8"/>
<line x1="625" y1="352" x2="455" y2="305" stroke="#555555" stroke-width="0.8"/>
<line x1="625" y1="352" x2="455" y2="425" stroke="#555555" stroke-width="0.8"/>
<line x1="625" y1="352" x2="455" y2="545" stroke="#555555" stroke-width="0.8"/>

<path d="M625,352 L625,65 L245,65 L245,120" fill="none" stroke="#555555" stroke-width="0.8"/>
<path d="M625,352 L625,65 L245,65 L245,240" fill="none" stroke="#555555" stroke-width="0.8"/>
<path d="M625,352 L625,65 L245,65 L245,360" fill="none" stroke="#555555" stroke-width="0.8"/>
<path d="M625,375 L625,718 L350,718 L350,650" fill="none" stroke="#555555" stroke-width="0.8"/>

<g>
  <ellipse cx="245" cy="120" rx="92" ry="23" fill="#085041" stroke="#1D9E75" stroke-width="0.8"/>
  <text style="font-size:12px;fill:#9FE1CB" x="245" y="120" text-anchor="middle" dominant-baseline="central">Register / log in</text>
</g>
<g>
  <ellipse cx="245" cy="240" rx="92" ry="23" fill="#085041" stroke="#1D9E75" stroke-width="0.8"/>
  <text style="font-size:12px;fill:#9FE1CB" x="245" y="240" text-anchor="middle" dominant-baseline="central">Search &amp; browse shows</text>
</g>
<g>
  <ellipse cx="245" cy="360" rx="92" ry="23" fill="#085041" stroke="#1D9E75" stroke-width="0.8"/>
  <text style="font-size:12px;fill:#9FE1CB" x="245" y="360" text-anchor="middle" dominant-baseline="central">View show details</text>
</g>

<g>
  <ellipse cx="455" cy="185" rx="92" ry="23" fill="#26215C" stroke="#7F77DD" stroke-width="0.8"/>
  <text style="font-size:12px;fill:#CECBF6" x="455" y="185" text-anchor="middle" dominant-baseline="central">Track episode progress</text>
</g>
<g>
  <ellipse cx="455" cy="305" rx="92" ry="23" fill="#26215C" stroke="#7F77DD" stroke-width="0.8"/>
  <text style="font-size:12px;fill:#CECBF6" x="455" y="305" text-anchor="middle" dominant-baseline="central">Rate &amp; review shows</text>
</g>
<g>
  <ellipse cx="455" cy="425" rx="92" ry="23" fill="#26215C" stroke="#7F77DD" stroke-width="0.8"/>
  <text style="font-size:12px;fill:#CECBF6" x="455" y="425" text-anchor="middle" dominant-baseline="central">Get recommendations</text>
</g>
<g>
  <ellipse cx="455" cy="545" rx="92" ry="23" fill="#26215C" stroke="#7F77DD" stroke-width="0.8"/>
  <text style="font-size:12px;fill:#CECBF6" x="455" y="545" text-anchor="middle" dominant-baseline="central">Manage watchlist</text>
</g>

<g>
  <ellipse cx="350" cy="650" rx="112" ry="23" fill="#085041" stroke="#1D9E75" stroke-width="0.8"/>
  <text style="font-size:12px;fill:#9FE1CB" x="350" y="650" text-anchor="middle" dominant-baseline="central">Filter by streaming service</text>
</g>

<g stroke="#cccccc" stroke-width="1.2" fill="none">
  <circle cx="55" cy="250" r="14"/>
  <line x1="55" y1="264" x2="55" y2="300"/>
  <line x1="55" y1="277" x2="33" y2="295"/>
  <line x1="55" y1="277" x2="77" y2="295"/>
  <line x1="55" y1="300" x2="39" y2="328"/>
  <line x1="55" y1="300" x2="71" y2="328"/>
</g>
<text style="font-size:12px;fill:#cccccc" x="55" y="346" text-anchor="middle" dominant-baseline="central">Guest user</text>

<g stroke="#cccccc" stroke-width="1.2" fill="none">
  <circle cx="625" cy="325" r="14"/>
  <line x1="625" y1="339" x2="625" y2="375"/>
  <line x1="625" y1="352" x2="603" y2="370"/>
  <line x1="625" y1="352" x2="647" y2="370"/>
  <line x1="625" y1="375" x2="609" y2="403"/>
  <line x1="625" y1="375" x2="641" y2="403"/>
</g>
<text style="font-size:12px;fill:#cccccc" x="625" y="420" text-anchor="middle" dominant-baseline="central">Registered</text>
<text style="font-size:12px;fill:#cccccc" x="625" y="436" text-anchor="middle" dominant-baseline="central">user</text>

<ellipse cx="175" cy="752" rx="14" ry="8" fill="#085041" stroke="#1D9E75" stroke-width="0.8"/>
<text style="font-size:12px;fill:#aaaaaa" x="196" y="752" dominant-baseline="central">Accessible to all users</text>
<ellipse cx="393" cy="752" rx="14" ry="8" fill="#26215C" stroke="#7F77DD" stroke-width="0.8"/>
<text style="font-size:12px;fill:#aaaaaa" x="414" y="752" dominant-baseline="central">Registered users only</text>
</svg>